<?xml version="1.0" encoding="UTF-8"?>
<svg xmlns="http://www.w3.org/2000/svg" viewBox="0 0 128 128">
<title>fson4 - N-back Task icon</title>
<rect width="100%" height="100%" fill="#53ba9a" />
<g transform="matrix(1.1730905,0,0,1.1730905,2.9992947,2.9992946)" fill="#fff">
<g transform="translate(-10,-2.5000075)">
<path d="M 62,20 C 76.104509,20 92,26.663695 92,43 92,59.336305 69.710529,89.024439 62,89 54.289471,88.97556 32,59.336305 32,43 32,26.663695 47.895491,20 62,20 Z" />
<g transform="matrix(1.2612353,0,0,0.96012897,-4.091175,9.6533023)" fill="#53ba9a">
<path transform="matrix(.98358579 0 0 1 -.38286638 4.5458831)" d="m 45.322323,40.589123 c 3.239711,2.49837 7.334838,8.947768 5.478261,13.385535 -1.833566,4.382763 -7.795078,2.595999 -10.992632,0.123648 -3.176885,-2.456369 -7.365874,-8.499823 -5.635275,-12.924613 1.767951,-4.520293 7.90216,-3.088935 11.149646,-0.58457 z m 16.686724,0 c -3.239711,2.49837 -7.334838,8.947768 -5.478261,13.385535 1.833566,4.382763 7.795078,2.595999 10.992632,0.123648 3.176885,-2.456369 7.365874,-8.499823 5.635275,-12.924613 -1.767951,-4.520293 -7.90216,-3.088935 -11.149646,-0.58457 z" />
</g>
</g>
</g>
</svg>
