<?xml version="1.0" encoding="utf-8"?>
<svg xmlns="http://www.w3.org/2000/svg" viewBox="0 0 264 264">
<title>https://fson4.github.io/nb/</title>
<rect width="100%" height="100%" fill="#fff" />
<g fill="#000">
<path d="M80 16h8v8h-8zM96 16h8v8h-8zM104 16h8v8h-8zM112 16h8v8h-8zM120 16h8v8h-8zM128 16h8v8h-8zM136 16h8v8h-8zM160 16h8v8h-8zM80 24h8v8h-8zM96 24h8v8h-8zM104 24h8v8h-8zM120 24h8v8h-8zM128 24h8v8h-8zM136 24h8v8h-8zM152 24h8v8h-8zM168 24h8v8h-8zM80 32h8v8h-8zM96 32h8v8h-8zM104 32h8v8h-8zM120 32h8v8h-8zM128 32h8v8h-8zM168 32h8v8h-8zM112 40h8v8h-8zM128 40h8v8h-8zM136 40h8v8h-8zM152 40h8v8h-8zM160 40h8v8h-8zM168 40h8v8h-8zM176 40h8v8h-8zM80 48h8v8h-8zM88 48h8v8h-8zM96 48h8v8h-8zM120 48h8v8h-8zM136 48h8v8h-8zM160 48h8v8h-8zM168 48h8v8h-8zM104 56h8v8h-8zM120 56h8v8h-8zM128 56h8v8h-8zM80 64h8v8h-8zM96 64h8v8h-8zM112 64h8v8h-8zM128 64h8v8h-8zM144 64h8v8h-8zM160 64h8v8h-8zM176 64h8v8h-8zM88 72h8v8h-8zM104 72h8v8h-8zM112 72h8v8h-8zM128 72h8v8h-8zM16 80h8v8h-8zM40 80h8v8h-8zM48 80h8v8h-8zM56 80h8v8h-8zM64 80h8v8h-8zM72 80h8v8h-8zM80 80h8v8h-8zM112 80h8v8h-8zM120 80h8v8h-8zM128 80h8v8h-8zM136 80h8v8h-8zM144 80h8v8h-8zM152 80h8v8h-8zM184 80h8v8h-8zM208 80h8v8h-8zM224 80h8v8h-8zM232 80h8v8h-8zM240 80h8v8h-8zM40 88h8v8h-8zM48 88h8v8h-8zM56 88h8v8h-8zM72 88h8v8h-8zM80 88h8v8h-8zM88 88h8v8h-8zM112 88h8v8h-8zM128 88h8v8h-8zM152 88h8v8h-8zM160 88h8v8h-8zM168 88h8v8h-8zM176 88h8v8h-8zM184 88h8v8h-8zM208 88h8v8h-8zM224 88h8v8h-8zM232 88h8v8h-8zM16 96h8v8h-8zM40 96h8v8h-8zM64 96h8v8h-8zM96 96h8v8h-8zM104 96h8v8h-8zM112 96h8v8h-8zM128 96h8v8h-8zM176 96h8v8h-8zM200 96h8v8h-8zM224 96h8v8h-8zM24 104h8v8h-8zM72 104h8v8h-8zM88 104h8v8h-8zM104 104h8v8h-8zM112 104h8v8h-8zM128 104h8v8h-8zM136 104h8v8h-8zM152 104h8v8h-8zM160 104h8v8h-8zM168 104h8v8h-8zM192 104h8v8h-8zM216 104h8v8h-8zM240 104h8v8h-8zM24 112h8v8h-8zM32 112h8v8h-8zM40 112h8v8h-8zM48 112h8v8h-8zM56 112h8v8h-8zM64 112h8v8h-8zM80 112h8v8h-8zM88 112h8v8h-8zM120 112h8v8h-8zM128 112h8v8h-8zM168 112h8v8h-8zM176 112h8v8h-8zM184 112h8v8h-8zM192 112h8v8h-8zM200 112h8v8h-8zM240 112h8v8h-8zM16 120h8v8h-8zM32 120h8v8h-8zM40 120h8v8h-8zM56 120h8v8h-8zM72 120h8v8h-8zM80 120h8v8h-8zM88 120h8v8h-8zM112 120h8v8h-8zM160 120h8v8h-8zM192 120h8v8h-8zM200 120h8v8h-8zM208 120h8v8h-8zM216 120h8v8h-8zM224 120h8v8h-8zM232 120h8v8h-8zM240 120h8v8h-8zM24 128h8v8h-8zM32 128h8v8h-8zM64 128h8v8h-8zM72 128h8v8h-8zM80 128h8v8h-8zM88 128h8v8h-8zM128 128h8v8h-8zM136 128h8v8h-8zM152 128h8v8h-8zM160 128h8v8h-8zM168 128h8v8h-8zM176 128h8v8h-8zM200 128h8v8h-8zM224 128h8v8h-8zM240 128h8v8h-8zM32 136h8v8h-8zM40 136h8v8h-8zM48 136h8v8h-8zM56 136h8v8h-8zM72 136h8v8h-8zM88 136h8v8h-8zM96 136h8v8h-8zM104 136h8v8h-8zM112 136h8v8h-8zM120 136h8v8h-8zM128 136h8v8h-8zM144 136h8v8h-8zM160 136h8v8h-8zM200 136h8v8h-8zM224 136h8v8h-8zM240 136h8v8h-8zM24 144h8v8h-8zM56 144h8v8h-8zM64 144h8v8h-8zM80 144h8v8h-8zM88 144h8v8h-8zM96 144h8v8h-8zM112 144h8v8h-8zM136 144h8v8h-8zM160 144h8v8h-8zM200 144h8v8h-8zM216 144h8v8h-8zM16 152h8v8h-8zM24 152h8v8h-8zM56 152h8v8h-8zM96 152h8v8h-8zM160 152h8v8h-8zM168 152h8v8h-8zM176 152h8v8h-8zM208 152h8v8h-8zM224 152h8v8h-8zM232 152h8v8h-8zM16 160h8v8h-8zM24 160h8v8h-8zM32 160h8v8h-8zM40 160h8v8h-8zM56 160h8v8h-8zM64 160h8v8h-8zM72 160h8v8h-8zM80 160h8v8h-8zM88 160h8v8h-8zM96 160h8v8h-8zM104 160h8v8h-8zM112 160h8v8h-8zM120 160h8v8h-8zM128 160h8v8h-8zM144 160h8v8h-8zM168 160h8v8h-8zM176 160h8v8h-8zM192 160h8v8h-8zM216 160h8v8h-8zM240 160h8v8h-8zM16 168h8v8h-8zM24 168h8v8h-8zM32 168h8v8h-8zM48 168h8v8h-8zM96 168h8v8h-8zM120 168h8v8h-8zM136 168h8v8h-8zM144 168h8v8h-8zM168 168h8v8h-8zM176 168h8v8h-8zM184 168h8v8h-8zM192 168h8v8h-8zM208 168h8v8h-8zM216 168h8v8h-8zM224 168h8v8h-8zM16 176h8v8h-8zM24 176h8v8h-8zM32 176h8v8h-8zM64 176h8v8h-8zM96 176h8v8h-8zM104 176h8v8h-8zM112 176h8v8h-8zM120 176h8v8h-8zM160 176h8v8h-8zM176 176h8v8h-8zM184 176h8v8h-8zM192 176h8v8h-8zM200 176h8v8h-8zM208 176h8v8h-8zM216 176h8v8h-8zM224 176h8v8h-8zM232 176h8v8h-8zM80 184h8v8h-8zM88 184h8v8h-8zM104 184h8v8h-8zM120 184h8v8h-8zM144 184h8v8h-8zM152 184h8v8h-8zM160 184h8v8h-8zM176 184h8v8h-8zM208 184h8v8h-8zM216 184h8v8h-8zM80 192h8v8h-8zM96 192h8v8h-8zM104 192h8v8h-8zM120 192h8v8h-8zM136 192h8v8h-8zM144 192h8v8h-8zM168 192h8v8h-8zM176 192h8v8h-8zM192 192h8v8h-8zM208 192h8v8h-8zM216 192h8v8h-8zM80 200h8v8h-8zM120 200h8v8h-8zM144 200h8v8h-8zM160 200h8v8h-8zM168 200h8v8h-8zM176 200h8v8h-8zM208 200h8v8h-8zM232 200h8v8h-8zM80 208h8v8h-8zM88 208h8v8h-8zM120 208h8v8h-8zM136 208h8v8h-8zM144 208h8v8h-8zM152 208h8v8h-8zM168 208h8v8h-8zM176 208h8v8h-8zM184 208h8v8h-8zM192 208h8v8h-8zM200 208h8v8h-8zM208 208h8v8h-8zM216 208h8v8h-8zM232 208h8v8h-8zM80 216h8v8h-8zM96 216h8v8h-8zM120 216h8v8h-8zM128 216h8v8h-8zM144 216h8v8h-8zM160 216h8v8h-8zM168 216h8v8h-8zM176 216h8v8h-8zM184 216h8v8h-8zM200 216h8v8h-8zM232 216h8v8h-8zM88 224h8v8h-8zM104 224h8v8h-8zM144 224h8v8h-8zM160 224h8v8h-8zM184 224h8v8h-8zM200 224h8v8h-8zM208 224h8v8h-8zM224 224h8v8h-8zM232 224h8v8h-8zM240 224h8v8h-8zM88 232h8v8h-8zM104 232h8v8h-8zM120 232h8v8h-8zM136 232h8v8h-8zM168 232h8v8h-8zM216 232h8v8h-8zM224 232h8v8h-8zM240 232h8v8h-8zM80 240h8v8h-8zM104 240h8v8h-8zM144 240h8v8h-8zM152 240h8v8h-8zM160 240h8v8h-8zM168 240h8v8h-8zM176 240h8v8h-8zM208 240h8v8h-8z" />
<path fill="none" d="M24.4 24.4h39.2v39.2H24.4z" />
<path d="M63.6 16H16v56h56V16h-8.4zm0 47.6H24.4V24.4h39.2v39.2z" />
<path fill="none" d="M200.4 24.4h39.2v39.2h-39.2z" />
<path d="M239.6 16H192v56h56V16h-8.4zm0 47.6h-39.2V24.4h39.2v39.2z" />
<path fill="none" d="M24.4 200.4h39.2v39.2H24.4z" />
<path d="M63.6 192H16v56h56v-56h-8.4zm0 47.6H24.4v-39.2h39.2v39.2zM32 32h24v24H32zM208 32h24v24h-24z" />
<path d="M32 208h24v24H32z" />
</g>
</svg>
