<?xml version="1.0" encoding="utf-8"?>
<svg xmlns="http://www.w3.org/2000/svg" viewBox="0 0 264 264">
<title>https://fson4.github.io/bt/</title>
<rect width="100%" height="100%" fill="#fff" />
<g fill="#000">
<path d="M112 16h8v8h-8zM136 16h8v8h-8zM144 16h8v8h-8zM152 16h8v8h-8zM160 16h8v8h-8zM168 16h8v8h-8zM176 16h8v8h-8zM88 24h8v8h-8zM96 24h8v8h-8zM104 24h8v8h-8zM112 24h8v8h-8zM152 24h8v8h-8zM176 24h8v8h-8zM80 32h8v8h-8zM88 32h8v8h-8zM96 32h8v8h-8zM128 32h8v8h-8zM144 32h8v8h-8zM80 40h8v8h-8zM104 40h8v8h-8zM112 40h8v8h-8zM144 40h8v8h-8zM152 40h8v8h-8zM160 40h8v8h-8zM168 40h8v8h-8zM80 48h8v8h-8zM104 48h8v8h-8zM112 48h8v8h-8zM120 48h8v8h-8zM128 48h8v8h-8zM136 48h8v8h-8zM152 48h8v8h-8zM160 48h8v8h-8zM168 48h8v8h-8zM176 48h8v8h-8zM80 56h8v8h-8zM96 56h8v8h-8zM104 56h8v8h-8zM120 56h8v8h-8zM128 56h8v8h-8zM136 56h8v8h-8zM144 56h8v8h-8zM152 56h8v8h-8zM80 64h8v8h-8zM96 64h8v8h-8zM112 64h8v8h-8zM128 64h8v8h-8zM144 64h8v8h-8zM160 64h8v8h-8zM176 64h8v8h-8zM80 72h8v8h-8zM88 72h8v8h-8zM96 72h8v8h-8zM104 72h8v8h-8zM112 72h8v8h-8zM120 72h8v8h-8zM136 72h8v8h-8zM168 72h8v8h-8zM176 72h8v8h-8zM16 80h8v8h-8zM32 80h8v8h-8zM40 80h8v8h-8zM48 80h8v8h-8zM56 80h8v8h-8zM64 80h8v8h-8zM88 80h8v8h-8zM96 80h8v8h-8zM104 80h8v8h-8zM112 80h8v8h-8zM128 80h8v8h-8zM136 80h8v8h-8zM152 80h8v8h-8zM168 80h8v8h-8zM192 80h8v8h-8zM200 80h8v8h-8zM208 80h8v8h-8zM216 80h8v8h-8zM224 80h8v8h-8zM32 88h8v8h-8zM40 88h8v8h-8zM72 88h8v8h-8zM88 88h8v8h-8zM104 88h8v8h-8zM136 88h8v8h-8zM144 88h8v8h-8zM160 88h8v8h-8zM168 88h8v8h-8zM192 88h8v8h-8zM208 88h8v8h-8zM240 88h8v8h-8zM16 96h8v8h-8zM64 96h8v8h-8zM72 96h8v8h-8zM88 96h8v8h-8zM104 96h8v8h-8zM112 96h8v8h-8zM152 96h8v8h-8zM160 96h8v8h-8zM16 104h8v8h-8zM56 104h8v8h-8zM80 104h8v8h-8zM88 104h8v8h-8zM96 104h8v8h-8zM104 104h8v8h-8zM112 104h8v8h-8zM128 104h8v8h-8zM144 104h8v8h-8zM160 104h8v8h-8zM168 104h8v8h-8zM184 104h8v8h-8zM200 104h8v8h-8zM216 104h8v8h-8zM232 104h8v8h-8zM24 112h8v8h-8zM32 112h8v8h-8zM40 112h8v8h-8zM48 112h8v8h-8zM56 112h8v8h-8zM64 112h8v8h-8zM96 112h8v8h-8zM112 112h8v8h-8zM144 112h8v8h-8zM152 112h8v8h-8zM184 112h8v8h-8zM216 112h8v8h-8zM224 112h8v8h-8zM16 120h8v8h-8zM32 120h8v8h-8zM40 120h8v8h-8zM48 120h8v8h-8zM80 120h8v8h-8zM88 120h8v8h-8zM96 120h8v8h-8zM120 120h8v8h-8zM128 120h8v8h-8zM136 120h8v8h-8zM168 120h8v8h-8zM176 120h8v8h-8zM184 120h8v8h-8zM192 120h8v8h-8zM200 120h8v8h-8zM208 120h8v8h-8zM240 120h8v8h-8zM56 128h8v8h-8zM64 128h8v8h-8zM72 128h8v8h-8zM88 128h8v8h-8zM96 128h8v8h-8zM104 128h8v8h-8zM112 128h8v8h-8zM120 128h8v8h-8zM128 128h8v8h-8zM136 128h8v8h-8zM144 128h8v8h-8zM176 128h8v8h-8zM192 128h8v8h-8zM200 128h8v8h-8zM216 128h8v8h-8zM224 128h8v8h-8zM24 136h8v8h-8zM32 136h8v8h-8zM40 136h8v8h-8zM72 136h8v8h-8zM96 136h8v8h-8zM112 136h8v8h-8zM120 136h8v8h-8zM136 136h8v8h-8zM160 136h8v8h-8zM176 136h8v8h-8zM184 136h8v8h-8zM192 136h8v8h-8zM200 136h8v8h-8zM232 136h8v8h-8zM16 144h8v8h-8zM24 144h8v8h-8zM40 144h8v8h-8zM64 144h8v8h-8zM80 144h8v8h-8zM128 144h8v8h-8zM136 144h8v8h-8zM152 144h8v8h-8zM160 144h8v8h-8zM176 144h8v8h-8zM216 144h8v8h-8zM224 144h8v8h-8zM16 152h8v8h-8zM24 152h8v8h-8zM32 152h8v8h-8zM40 152h8v8h-8zM88 152h8v8h-8zM96 152h8v8h-8zM104 152h8v8h-8zM136 152h8v8h-8zM144 152h8v8h-8zM152 152h8v8h-8zM160 152h8v8h-8zM168 152h8v8h-8zM176 152h8v8h-8zM184 152h8v8h-8zM192 152h8v8h-8zM200 152h8v8h-8zM208 152h8v8h-8zM224 152h8v8h-8zM240 152h8v8h-8zM16 160h8v8h-8zM32 160h8v8h-8zM48 160h8v8h-8zM56 160h8v8h-8zM64 160h8v8h-8zM88 160h8v8h-8zM104 160h8v8h-8zM112 160h8v8h-8zM152 160h8v8h-8zM200 160h8v8h-8zM224 160h8v8h-8zM16 168h8v8h-8zM32 168h8v8h-8zM48 168h8v8h-8zM72 168h8v8h-8zM104 168h8v8h-8zM112 168h8v8h-8zM128 168h8v8h-8zM144 168h8v8h-8zM192 168h8v8h-8zM208 168h8v8h-8zM232 168h8v8h-8zM16 176h8v8h-8zM48 176h8v8h-8zM56 176h8v8h-8zM64 176h8v8h-8zM80 176h8v8h-8zM96 176h8v8h-8zM104 176h8v8h-8zM112 176h8v8h-8zM144 176h8v8h-8zM160 176h8v8h-8zM168 176h8v8h-8zM176 176h8v8h-8zM184 176h8v8h-8zM192 176h8v8h-8zM200 176h8v8h-8zM208 176h8v8h-8zM224 176h8v8h-8zM232 176h8v8h-8zM240 176h8v8h-8zM80 184h8v8h-8zM88 184h8v8h-8zM96 184h8v8h-8zM120 184h8v8h-8zM128 184h8v8h-8zM136 184h8v8h-8zM152 184h8v8h-8zM160 184h8v8h-8zM176 184h8v8h-8zM208 184h8v8h-8zM216 184h8v8h-8zM224 184h8v8h-8zM232 184h8v8h-8zM240 184h8v8h-8zM96 192h8v8h-8zM120 192h8v8h-8zM128 192h8v8h-8zM136 192h8v8h-8zM144 192h8v8h-8zM152 192h8v8h-8zM168 192h8v8h-8zM176 192h8v8h-8zM192 192h8v8h-8zM208 192h8v8h-8zM216 192h8v8h-8zM224 192h8v8h-8zM80 200h8v8h-8zM88 200h8v8h-8zM104 200h8v8h-8zM120 200h8v8h-8zM136 200h8v8h-8zM152 200h8v8h-8zM160 200h8v8h-8zM168 200h8v8h-8zM176 200h8v8h-8zM208 200h8v8h-8zM240 200h8v8h-8zM80 208h8v8h-8zM96 208h8v8h-8zM128 208h8v8h-8zM136 208h8v8h-8zM176 208h8v8h-8zM184 208h8v8h-8zM192 208h8v8h-8zM200 208h8v8h-8zM208 208h8v8h-8zM224 208h8v8h-8zM232 208h8v8h-8zM240 208h8v8h-8zM80 216h8v8h-8zM88 216h8v8h-8zM96 216h8v8h-8zM136 216h8v8h-8zM144 216h8v8h-8zM160 216h8v8h-8zM200 216h8v8h-8zM216 216h8v8h-8zM224 216h8v8h-8zM80 224h8v8h-8zM88 224h8v8h-8zM96 224h8v8h-8zM112 224h8v8h-8zM160 224h8v8h-8zM168 224h8v8h-8zM184 224h8v8h-8zM192 224h8v8h-8zM200 224h8v8h-8zM208 224h8v8h-8zM216 224h8v8h-8zM224 224h8v8h-8zM232 224h8v8h-8zM104 232h8v8h-8zM112 232h8v8h-8zM120 232h8v8h-8zM128 232h8v8h-8zM144 232h8v8h-8zM168 232h8v8h-8zM176 232h8v8h-8zM184 232h8v8h-8zM192 232h8v8h-8zM216 232h8v8h-8zM232 232h8v8h-8zM80 240h8v8h-8zM104 240h8v8h-8zM112 240h8v8h-8zM120 240h8v8h-8zM128 240h8v8h-8zM144 240h8v8h-8zM160 240h8v8h-8zM168 240h8v8h-8zM200 240h8v8h-8zM208 240h8v8h-8zM224 240h8v8h-8z" />
<path fill="none" d="M24.4 24.4h39.2v39.2H24.4z" />
<path d="M63.6 16H16v56h56V16h-8.4zm0 47.6H24.4V24.4h39.2v39.2z" />
<path fill="none" d="M200.4 24.4h39.2v39.2h-39.2z" />
<path d="M239.6 16H192v56h56V16h-8.4zm0 47.6h-39.2V24.4h39.2v39.2z" />
<path fill="none" d="M24.4 200.4h39.2v39.2H24.4z" />
<path d="M63.6 192H16v56h56v-56h-8.4zm0 47.6H24.4v-39.2h39.2v39.2zM32 32h24v24H32zM208 32h24v24h-24z" />
<path d="M32 208h24v24H32z" />
</g>
</svg>
